<?xml version="1.0" encoding="utf-8"?><svg xmlns="http://www.w3.org/2000/svg" width="102" height="102" viewBox="0 0 102 102">
  <g fill="none" fill-rule="evenodd">
    <circle cx="51" cy="51" r="51" fill="#FFF"/>
    <g fill="#303030" transform="translate(1 1)">
      <path d="M44.8550855,45.0473191 C44.1815812,41.5566809 46.202094,32.105617 46.2226068,32.0107234 L45.0525214,31.7605106 C44.9670513,32.158383 42.960641,41.5451915 43.6798718,45.272 L44.8550855,45.0473191 Z"/>
      <path d="M51.5111538,40.2933191 C51.9043162,46.6303404 49.5752564,50.7631064 45.432094,51.0801277 C43.8624359,51.2026809 42.2654274,50.5490638 41.0513248,49.2945957 C39.4791026,47.6694894 38.7799573,45.3133191 39.0838034,42.6597021 L37.8953419,42.524383 C37.5500427,45.5375745 38.365,48.2358723 40.1902137,50.1218298 C41.5359402,51.5120426 43.289359,52.2856596 45.0620085,52.2856596 C45.2158547,52.2856596 45.3701282,52.2797021 45.5239744,52.2682128 C50.3179915,51.9014043 53.1367949,47.1724681 52.7055983,40.2197021 L51.5111538,40.2933191 Z"/>
      <path d="M40.3403846,17.8586383 C40.6553419,17.9433191 40.9190171,18.0194894 41.1297009,18.0833191 C40.9190171,18.0194894 40.6553419,17.9433191 40.3403846,17.8586383 M35.4583333,28.6514043 C34.609188,28.6109787 33.7878205,28.5884255 33.0010684,28.5845957 C33.7878205,28.5884255 34.6096154,28.6109787 35.4583333,28.6514043 M77.2711538,89.9331064 C76.1087607,86.760766 74.8455128,84.2305532 73.9741453,82.4939574 L73.8519231,82.2492766 L72.7809829,82.7811915 L72.9040598,83.0267234 C73.7848291,84.781617 75.075,87.3654468 76.242094,90.615234 C68.6361111,95.5250213 59.5767094,98.3824681 49.8561966,98.3824681 C42.216453,98.3824681 34.983547,96.6190638 28.5438034,93.4811915 C29.9228632,89.8867234 31.442094,87.2922553 33.0792735,85.7828936 L32.2660256,84.9084255 C30.4040598,86.6254468 28.8228632,89.480766 27.483547,92.948 C22.8660256,90.5565106 18.6792735,87.4497021 15.0732906,83.7756596 C19.2138889,78.8411915 24.3655983,75.5420426 30.5010684,73.935234 C33.0023504,73.2799149 35.3617521,72.775234 37.4433761,72.3301277 C45.0066239,70.7114043 50.0032051,69.6420426 49.2544872,64.0028936 C48.500641,58.3237447 46.090812,57.4862979 42.7553419,56.3267234 C41.4758547,55.8820426 40.0258547,55.3786383 38.4318376,54.5020426 C29.2027778,49.6982128 32.3121795,40.2011915 35.3190171,31.0165106 C35.5121795,30.4271489 35.700641,29.8471489 35.8865385,29.2684255 C40.8292735,29.5420426 46.5698718,30.3986383 51.4942308,31.4454468 L51.7438034,30.2799149 C46.6510684,29.1973617 40.6805556,28.3186383 35.5634615,28.0662979 L35.5638889,28.0594894 L35.5634615,28.0594894 C35.5600427,28.0590638 35.5566239,28.0590638 35.5527778,28.0590638 L35.0275641,28.0326809 L35.0267094,28.035234 C32.3809829,27.9275745 30.1643162,28.0011915 28.4049145,28.254383 C28.4459402,28.1999149 28.4891026,28.1462979 28.5305556,28.0918298 C28.6232906,27.9701277 28.7155983,27.8484255 28.8108974,27.7267234 C29.9220085,26.3254468 31.2502137,24.9824681 32.8758547,24.0471489 C34.2980769,23.2292766 35.9485043,22.7241702 37.8814103,22.7654468 L43.2955128,22.8897021 L38.0391026,21.5918298 C37.4066239,21.4356596 36.742094,21.3284255 36.0463675,21.2586383 C35.859188,21.2399149 35.6638889,21.2305532 35.4715812,21.2169362 C35.307906,21.2050213 35.1476496,21.1888511 34.9801282,21.180766 C33.1621795,21.0918298 31.1502137,21.1990638 28.9510684,21.3160851 C28.2865385,21.3514043 27.6134615,21.3871489 26.9284188,21.4182128 C28.7224359,20.7577872 30.5262821,20.2697021 32.2275641,19.9075745 C37.4365385,18.800766 41.6848291,18.8850213 41.7485043,18.8862979 L45.3083333,18.9756596 L41.9737179,17.7326809 C41.957906,17.7267234 41.9010684,17.7062979 41.8036325,17.6726809 C41.1202991,17.4399149 38.4386752,16.6003404 33.8023504,16.0492766 C38.2532051,13.9973617 47.4010684,11.5314043 55.7844017,16.028 C63.5809829,20.2105532 63.732265,27.540766 62.9929487,33.4590638 L62.8480769,34.6190638 L63.8758547,34.054383 C65.3348291,33.2531064 66.5570513,33.215234 67.3181624,33.9471489 C68.2463675,34.8399149 68.5655983,37.134383 67.0732906,40.061617 C66.1621795,41.848 65.0104701,42.7820426 63.8959402,43.6854468 C62.2318376,45.035234 60.5100427,46.4314043 59.9784188,50.4194894 C58.9143162,58.395234 59.9553419,63.141617 63.1561966,64.9309787 C63.157906,64.9322553 63.159188,64.9339574 63.1608974,64.9348085 C65.0108974,66.1986383 67.590812,67.0675745 70.5779915,68.0731064 C76.2066239,69.9684255 83.2617521,72.3531064 88.9647436,78.7203404 C85.7237179,83.074383 81.766453,86.8675745 77.2711538,89.9331064 M67.2254274,33.1437447 C66.8211538,32.920766 66.3429487,32.8114043 65.7997863,32.834383 C66.3429487,32.8114043 66.8211538,32.920766 67.2254274,33.1437447 M49.8561966,0.286723404 C22.3651709,0.286723404 0.000213675214,22.5569362 0.000213675214,49.9305532 C0.000213675214,77.3041702 22.3651709,99.574383 49.8561966,99.574383 C77.3467949,99.574383 99.7121795,77.3041702 99.7121795,49.9305532 C99.7121795,22.5569362 77.3467949,0.286723404 49.8561966,0.286723404" transform="translate(0 .139)"/>
    </g>
  </g>
</svg>
